<?xml version="1.0" encoding="UTF-8" standalone="no"?>
<!DOCTYPE svg PUBLIC "-//W3C//DTD SVG 1.1//EN" "http://www.w3.org/Graphics/SVG/1.1/DTD/svg11.dtd">
<svg width="100%" height="100%" viewBox="0 0 756 756" version="1.1" xmlns="http://www.w3.org/2000/svg" xmlns:xlink="http://www.w3.org/1999/xlink" xml:space="preserve" xmlns:serif="http://www.serif.com/" style="fill-rule:evenodd;clip-rule:evenodd;stroke-linecap:round;stroke-linejoin:round;stroke-miterlimit:1.5;">
    <rect id="Artboard1" x="0" y="0" width="755.906" height="755.906" style="fill:none;"/>
    <clipPath id="_clip1">
        <rect id="Artboard11" serif:id="Artboard1" x="0" y="0" width="755.906" height="755.906"/>
    </clipPath>
    <g clip-path="url(#_clip1)">
        <g transform="matrix(-0.794509,-2.67795e-16,3.31151e-16,-1.06934,731.207,1070.53)">
            <path d="M-29.335,722.266L-29.88,722.266L-29.289,721.739C-29.305,721.914 -29.32,722.09 -29.335,722.266ZM920.941,721.739L921.532,722.266L920.987,722.266C920.972,722.09 920.957,721.914 920.941,721.739Z" style="fill:rgb(32,60,156);"/>
        </g>
        <g transform="matrix(0.801047,0,0,1,73.3999,1.66437)">
            <path d="M-0.526,298.185C-0.813,293.682 -0.958,289.151 -0.958,284.595C-0.958,129.075 168.396,2.813 376.994,2.813C585.592,2.813 754.947,129.075 754.947,284.595C754.947,289.151 754.802,293.682 754.514,298.185C754.502,298.372 754.49,298.56 754.478,298.748C747.965,396.711 674.218,481.577 566.962,528.201C563.252,529.801 560.088,532.107 557.748,534.915C539.432,556.879 455.425,657.716 408.656,713.855C401.595,722.331 389.715,727.421 376.994,727.421C364.273,727.421 352.393,722.331 345.332,713.855L196.253,534.908C193.912,532.098 190.746,529.792 187.033,528.191C79.771,481.577 6.024,396.711 -0.489,298.748C-0.502,298.56 -0.514,298.372 -0.526,298.185ZM376.994,110.359C263.015,110.359 170.479,184.485 170.479,275.788C170.479,367.09 263.015,441.216 376.994,441.216C490.973,441.216 583.51,367.09 583.51,275.788C583.51,184.485 490.973,110.359 376.994,110.359Z" style="fill:url(#_Linear2);stroke:black;stroke-width:4.08px;"/>
        </g>
    </g>
    <defs>
        <linearGradient id="_Linear2" x1="0" y1="0" x2="1" y2="0" gradientUnits="userSpaceOnUse" gradientTransform="matrix(-9.88127,732.951,-914.991,-7.91536,385.407,7.84756)"><stop offset="0" style="stop-color:rgb(160,42,222);stop-opacity:1"/><stop offset="1" style="stop-color:rgb(115,0,147);stop-opacity:1"/></linearGradient>
    </defs>
</svg>
